<svg width="481" height="405" viewBox="0 0 481 405" fill="none" xmlns="http://www.w3.org/2000/svg">
<g clip-path="url(#clip0)">
<path opacity="0.18" d="M207.86 11.5131C197.338 7.07433 186.421 3.84792 175.285 1.88634C133.769 -5.2848 88.3266 8.0076 60.0028 41.8703C44.3506 60.6078 34.5782 84.2921 26.6625 108.154C9.67471 159.313 -0.0488773 212.251 -1.50916e-05 266.524C0.187395 298.187 11.6485 328.528 31.9559 351.119C60.5566 382.615 102.855 394.466 143.394 396.797C183.934 399.128 224.603 393.327 265.143 395.712C303.5 397.971 341.694 407.563 379.985 404.36C418.277 401.157 458.865 381.476 474.013 342.898C490.43 301.045 476.847 227.804 444.207 199.546C407.381 167.677 361.385 150.772 326.09 116.713C310.585 101.784 297.864 83.7583 283.466 67.5654C262.081 43.5608 236.33 23.4175 207.86 11.5131Z" fill="#55BCFF"/>
<path d="M149.225 183.318C149.339 187.891 151.408 192.09 153.476 196.076C162.825 214.138 173.331 231.932 187.826 245.349C209.147 265.047 237.063 273.553 264.035 281.507C261.625 280.226 258.726 266.649 257.651 263.713C255.566 257.876 253.611 251.968 251.608 246.096C248.448 236.808 241.836 229.334 235.321 222.501C220.646 207.071 202.836 195.656 183.347 189.19C172.285 185.479 160.796 183.502 149.225 183.318Z" fill="#55BCFF"/>
<path d="M149.225 183.318C149.339 187.891 151.408 192.09 153.476 196.076C162.825 214.138 173.331 231.932 187.826 245.349C209.147 265.047 237.063 273.553 264.035 281.507C261.625 280.226 258.726 266.649 257.651 263.713C255.566 257.876 253.611 251.968 251.608 246.096C248.448 236.808 241.836 229.334 235.321 222.501C220.646 207.071 202.836 195.656 183.347 189.19C172.285 185.479 160.796 183.502 149.225 183.318Z" fill="url(#paint0_linear)"/>
<path d="M254.735 193.425C252.536 176.627 250.272 159.616 244.083 144.01C237.894 128.404 227.161 114.258 212.6 108.421C212.176 132.503 211.747 156.573 211.313 180.631C211.069 194.546 210.857 208.71 214.57 222.038C220.988 245.384 243.204 272.788 264.622 280.511C267.879 269.282 262.472 252.289 260.957 240.651L254.735 193.425Z" fill="#55BCFF"/>
<path d="M254.735 193.425C252.536 176.627 250.272 159.616 244.083 144.01C237.894 128.404 227.161 114.258 212.6 108.421C212.176 132.503 211.747 156.573 211.313 180.631C211.069 194.546 210.857 208.71 214.57 222.038C220.988 245.384 243.204 272.788 264.622 280.511C267.879 269.282 262.472 252.289 260.957 240.651L254.735 193.425Z" fill="url(#paint1_linear)"/>
<path d="M370.913 348.93C280.013 361.671 187.908 351.884 96.2586 352.168C89.6297 352.168 80.5413 355.176 81.6 362.329C134.909 376.084 190.172 377.17 244.93 378.166L344.593 379.946C367.395 380.355 390.198 380.782 412.919 379.358C421.404 378.842 430.086 378.006 437.708 373.931C459.175 362.454 448.539 347.382 430.037 344.837C410.378 342.221 390.36 346.207 370.913 348.93Z" fill="url(#paint2_linear)"/>
<path d="M238.252 71.6224V341.136C238.252 352.791 247.715 362.222 259.426 362.187L372.233 361.991C383.878 361.991 393.406 352.524 393.406 340.869V71.3554C393.406 59.7001 383.96 50.2691 372.233 50.2869L259.345 50.4826C247.715 50.5004 238.252 59.967 238.252 71.6224ZM249.018 71.8003C249.018 64.6826 254.849 58.7926 262.048 58.7748H277.945V60.3763C277.993 61.5179 278.246 62.6379 278.691 63.6724C279.135 64.7069 279.761 65.6357 280.534 66.4057C281.307 67.1757 282.211 67.7719 283.195 68.1601C284.179 68.5484 285.223 68.7211 286.268 68.6685L346.889 68.5617C349.004 68.6584 351.068 67.8369 352.631 66.2766C354.193 64.7163 355.127 62.544 355.229 60.234V58.6325H371.646C378.829 58.6325 384.676 64.4334 384.676 71.6046V340.3C384.676 347.417 378.845 353.307 371.646 353.325L262.048 353.503C254.865 353.503 249.018 347.702 249.018 340.531V71.8003Z" fill="#55BCFF"/>
<path d="M232.943 77.0852V346.688C232.943 358.325 242.406 367.756 254.116 367.738L366.907 367.543C378.552 367.543 388.08 358.058 388.08 346.403V76.8895C388.08 65.252 378.617 55.8032 366.907 55.8388L254.116 56.0167C242.406 56.0523 232.943 65.5189 232.943 77.0852ZM243.709 77.281C243.709 70.1632 249.539 64.2733 256.739 64.2555H272.635V65.857C272.736 68.1655 273.671 70.3361 275.234 71.8935C276.797 73.451 278.861 74.2685 280.974 74.167L341.596 74.0602C343.708 74.152 345.768 73.3284 347.327 71.7686C348.886 70.2088 349.817 68.0392 349.919 65.7324V64.1309H366.337C373.519 64.1309 379.367 69.9319 379.367 77.1208V345.816C379.367 352.934 373.536 358.824 366.337 358.841L256.739 359.037C249.556 359.037 243.709 353.236 243.709 346.047V77.281Z" fill="white"/>
<path d="M243.709 77.3522V346.047C243.709 353.165 249.54 359.037 256.739 359.037L366.337 358.841C373.519 358.841 379.367 353.005 379.367 345.816V77.0852C379.367 69.9675 373.536 64.0776 366.337 64.0953H349.919V65.6968C349.817 68.0036 348.886 70.1732 347.327 71.733C345.768 73.2928 343.708 74.1165 341.596 74.0246L280.974 74.1314C278.861 74.2329 276.797 73.4154 275.234 71.8579C273.671 70.3005 272.736 68.1299 272.635 65.8214V64.2199H256.739C249.572 64.3445 243.709 70.1632 243.709 77.3522Z" stroke="url(#paint3_linear)" stroke-width="0.46" stroke-miterlimit="10"/>
<path d="M379.334 77.0852V345.78C379.334 352.898 373.503 358.806 366.304 358.806H350.228H318.028H315.618H284.134H256.706C249.523 358.806 243.676 353.005 243.676 345.816V77.1208C243.676 70.0031 249.507 64.0953 256.706 64.0953H272.619V65.6968C272.665 66.8376 272.916 67.9572 273.359 68.9916C273.801 70.026 274.426 70.9549 275.198 71.7251C275.969 72.4954 276.872 73.0918 277.855 73.4802C278.838 73.8687 279.881 74.0416 280.925 73.989L341.547 73.9C343.665 73.9966 345.731 73.1727 347.294 71.6086C348.857 70.0445 349.789 67.8676 349.886 65.5545V63.9708H366.304C373.503 64.1131 379.334 69.9675 379.334 77.0852Z" fill="#55BCFF"/>
<path d="M302.995 68.3126L323.843 68.277V66.4264L302.995 66.462V68.3126Z" fill="url(#paint4_linear)"/>
<path d="M297.542 69.3757C298.792 69.3623 299.797 68.3398 299.786 67.0917C299.775 65.8437 298.752 64.8428 297.502 64.8561C296.251 64.8695 295.247 65.892 295.258 67.1401C295.269 68.3881 296.292 69.389 297.542 69.3757Z" fill="url(#paint5_linear)"/>
<path d="M260.224 197.749H259.182C255.925 197.749 253.286 200.633 253.286 204.19V347.097C253.286 350.655 255.925 353.539 259.182 353.539H260.224C263.48 353.539 266.12 350.655 266.12 347.097V204.19C266.12 200.633 263.48 197.749 260.224 197.749Z" fill="#55BCFF"/>
<path d="M215.026 142.088H106.683C100.233 142.088 95.0045 147.8 95.0045 154.847V332.915C95.0045 339.961 100.233 345.674 106.683 345.674H215.026C221.476 345.674 226.705 339.961 226.705 332.915V154.847C226.705 147.8 221.476 142.088 215.026 142.088Z" fill="#55BCFF"/>
<path d="M212.893 145.576H104.549C98.0993 145.576 92.8708 151.288 92.8708 158.334V336.403C92.8708 343.449 98.0993 349.161 104.549 349.161H212.893C219.342 349.161 224.571 343.449 224.571 336.403V158.334C224.571 151.288 219.342 145.576 212.893 145.576Z" fill="url(#paint6_linear)"/>
<path d="M208.251 151.341H99.907C93.4574 151.341 88.2289 157.053 88.2289 164.1V342.168C88.2289 349.214 93.4574 354.927 99.907 354.927H208.251C214.701 354.927 219.929 349.214 219.929 342.168V164.1C219.929 157.053 214.701 151.341 208.251 151.341Z" fill="white"/>
<path d="M219.929 238.391V342.221C219.925 345.607 218.691 348.852 216.498 351.244C214.305 353.636 211.333 354.98 208.235 354.98H99.907C96.8098 354.98 93.8394 353.636 91.6494 351.243C89.4593 348.85 88.2289 345.605 88.2289 342.221V287.806C176.425 309.195 219.929 238.391 219.929 238.391Z" fill="url(#paint7_linear)"/>
<path d="M191.361 209.671V375.426H177.533V209.671C177.539 209.036 177.61 208.403 177.745 207.785C177.896 207.168 178.109 206.572 178.38 206.005L178.608 205.543L184.455 193.443L190.53 206.005C190.797 206.571 191.005 207.168 191.149 207.785C191.292 208.401 191.363 209.035 191.361 209.671Z" fill="#55BCFF"/>
<path d="M191.361 209.671V375.426H177.533V209.671C177.539 209.036 177.61 208.403 177.745 207.785C177.896 207.168 178.109 206.572 178.38 206.005L178.608 205.543L184.455 193.443L190.53 206.005C190.797 206.571 191.005 207.168 191.149 207.785C191.292 208.401 191.363 209.035 191.361 209.671Z" fill="url(#paint8_linear)"/>
<path d="M184.422 244.797V207.714H191.133V375.426H184.422V250.669C184.422 249.032 184.422 247.395 184.422 245.758C184.341 245.348 184.368 244.921 184.5 244.527C184.633 244.133 184.866 243.788 185.172 243.534C185.877 242.835 186.766 242.399 187.713 242.288C188.359 242.301 189.001 242.174 189.602 241.915C189.872 241.706 190.101 241.442 190.277 241.137C190.453 240.831 190.573 240.491 190.628 240.135C190.795 239.511 190.882 238.864 190.889 238.213C190.908 238.113 190.905 238.008 190.879 237.909C190.853 237.81 190.806 237.719 190.742 237.644C190.637 237.56 190.513 237.511 190.384 237.502C189.536 237.375 188.673 237.485 187.875 237.822C187.307 238.143 186.706 238.388 186.084 238.551C185.664 238.607 185.239 238.533 184.857 238.338C184.474 238.143 184.148 237.834 183.918 237.448" fill="#55BCFF"/>
<path d="M191.149 207.785C189.186 209.291 186.846 210.099 184.447 210.099C182.048 210.099 179.708 209.291 177.745 207.785L178.608 205.543L184.455 193.443L190.53 206.005C190.797 206.571 191.005 207.168 191.149 207.785Z" fill="#55BCFF"/>
<path d="M88.2289 169.349C85.0803 169.143 81.9343 169.797 79.0754 171.253C81.9329 172.715 85.079 173.376 88.2289 173.175V177.819C81.4045 177.819 74.5312 175.791 74.5312 171.271C74.5312 166.751 81.4045 164.723 88.2289 164.723V169.349Z" fill="#55BCFF"/>
<path d="M101.894 171.253C101.894 175.773 95.0371 177.801 88.2289 177.801V173.175C93.6526 173.175 97.0078 171.787 97.6756 171.004C97.742 170.421 98.0087 169.888 98.4216 169.512C98.8345 169.137 99.3627 168.946 99.8992 168.98C100.436 169.014 100.94 169.27 101.311 169.695C101.681 170.12 101.89 170.684 101.894 171.271V171.253Z" fill="#55BCFF"/>
<path d="M88.2289 195.845C85.0803 195.638 81.9343 196.293 79.0754 197.749C81.9343 199.205 85.0803 199.859 88.2289 199.653V204.297C81.4045 204.297 74.5312 202.269 74.5312 197.749C74.5312 193.229 81.4045 191.201 88.2289 191.201V195.845Z" fill="#55BCFF"/>
<path d="M101.894 197.749C101.894 202.269 95.0371 204.297 88.2289 204.297V199.653C93.6526 199.653 97.0078 198.265 97.6756 197.482C97.742 196.899 98.0087 196.366 98.4216 195.99C98.8345 195.615 99.3627 195.424 99.8992 195.458C100.436 195.492 100.94 195.748 101.311 196.173C101.681 196.599 101.89 197.162 101.894 197.749Z" fill="#55BCFF"/>
<path d="M88.2289 222.323C85.0788 222.119 81.932 222.78 79.0754 224.245C81.9343 225.701 85.0803 226.355 88.2289 226.149V230.793C81.4045 230.793 74.5312 228.764 74.5312 224.245C74.5312 219.725 81.4045 217.661 88.2289 217.661V222.323Z" fill="#55BCFF"/>
<path d="M101.894 224.245C101.894 228.764 95.0371 230.793 88.2289 230.793V226.149C93.6526 226.149 97.0078 224.761 97.6756 223.978C97.742 223.395 98.0087 222.862 98.4216 222.486C98.8345 222.11 99.3627 221.92 99.8992 221.954C100.436 221.988 100.94 222.244 101.311 222.669C101.681 223.094 101.89 223.658 101.894 224.245Z" fill="#55BCFF"/>
<path d="M88.2289 248.819C85.0788 248.615 81.932 249.276 79.0754 250.741C81.9343 252.197 85.0803 252.851 88.2289 252.645V257.289C81.4045 257.289 74.5312 255.26 74.5312 250.741C74.5312 246.221 81.4045 244.192 88.2289 244.192V248.819Z" fill="#55BCFF"/>
<path d="M101.894 250.741C101.894 255.26 95.0371 257.289 88.2289 257.289V252.645C93.6526 252.645 97.0078 251.257 97.6756 250.474C97.742 249.891 98.0087 249.358 98.4216 248.982C98.8345 248.606 99.3627 248.416 99.8992 248.45C100.436 248.484 100.94 248.739 101.311 249.165C101.681 249.59 101.89 250.153 101.894 250.741Z" fill="#55BCFF"/>
<path d="M88.2289 275.315C85.0788 275.111 81.932 275.771 79.0754 277.236C81.937 278.683 85.0809 279.337 88.2289 279.14V283.785C81.4045 283.785 74.5312 281.756 74.5312 277.236C74.5312 272.717 81.4045 270.67 88.2289 270.67V275.315Z" fill="#55BCFF"/>
<path d="M101.894 277.236C101.894 281.756 95.0371 283.785 88.2289 283.785V279.14C93.6526 279.14 97.0078 277.752 97.6756 276.952C97.7423 276.368 98.0102 275.833 98.4249 275.458C98.8395 275.082 99.3696 274.893 99.9073 274.929C100.445 274.965 100.95 275.224 101.319 275.653C101.688 276.082 101.894 276.648 101.894 277.236Z" fill="#55BCFF"/>
<path d="M88.2289 301.81C85.0788 301.607 81.932 302.267 79.0754 303.732C81.937 305.179 85.0809 305.833 88.2289 305.636V310.281C81.4045 310.281 74.5312 308.252 74.5312 303.732C74.5312 299.212 81.4045 297.166 88.2289 297.166V301.81Z" fill="#55BCFF"/>
<path d="M101.894 303.732C101.894 308.252 95.0371 310.281 88.2289 310.281V305.636C93.6526 305.636 97.0078 304.248 97.6756 303.448C97.7423 302.864 98.0102 302.329 98.4249 301.953C98.8395 301.578 99.3696 301.389 99.9073 301.425C100.445 301.461 100.95 301.72 101.319 302.149C101.688 302.577 101.894 303.144 101.894 303.732Z" fill="#55BCFF"/>
<path d="M88.2289 328.306C85.0788 328.102 81.932 328.763 79.0754 330.228C81.937 331.675 85.0809 332.329 88.2289 332.132V336.776C81.4045 336.776 74.5312 334.748 74.5312 330.228C74.5312 325.708 81.4045 323.662 88.2289 323.662V328.306Z" fill="#55BCFF"/>
<path d="M101.894 330.228C101.894 334.748 95.0371 336.776 88.2289 336.776V332.132C93.6526 332.132 97.0078 330.744 97.6756 329.943C97.7423 329.359 98.0102 328.825 98.4249 328.449C98.8395 328.074 99.3696 327.885 99.9073 327.921C100.445 327.957 100.95 328.216 101.319 328.645C101.688 329.073 101.894 329.639 101.894 330.228Z" fill="#55BCFF"/>
<path d="M147.939 338.841C145.675 342.809 143.086 346.543 140.202 349.998C135.756 355.062 131.023 359.816 126.032 364.233C123.573 366.546 121.146 368.877 118.768 371.351C116.813 373.379 114.321 374.767 113.882 377.899C113.588 379.679 113.882 381.992 112.595 383.237C112.109 383.645 111.524 383.887 110.913 383.935C110.302 383.982 109.692 383.832 109.158 383.504C108.107 382.819 107.229 381.859 106.601 380.711C106.325 380.296 106.115 379.833 105.982 379.341C105.86 378.803 105.86 378.241 105.982 377.703C106.503 375.105 108.344 373.148 109.94 371.155C111.375 369.374 112.677 367.47 113.833 365.461C114.798 363.916 115.888 362.469 117.09 361.137L126.504 349.553C129.876 345.407 133.345 341.083 134.876 335.798C135.285 333.685 135.983 331.652 136.945 329.765C139.355 325.922 144.974 325.352 148.672 327.167C153.167 329.463 149.747 335.691 147.939 338.841Z" fill="#FFBBAB"/>
<path d="M128.443 331.242C128.443 331.242 125.999 354.517 128.443 367.098C129.931 374.847 130.571 382.762 130.348 390.676C129.55 391.886 130.348 393.683 131.488 394.501C132.712 395.2 134.084 395.526 135.462 395.444L141.065 395.658C141.391 395.724 141.725 395.712 142.046 395.623C142.366 395.534 142.665 395.37 142.922 395.142C143.655 394.27 142.922 392.811 141.945 392.295C140.968 391.779 139.811 391.743 138.899 391.138C137.14 389.982 136.912 387.366 136.879 385.124L136.733 375.372C136.521 361.35 136.326 347.257 138.362 333.413C138.475 332.785 138.475 332.138 138.362 331.509C137.93 330.4 137.126 329.515 136.114 329.036C135.092 328.29 133.947 327.77 132.742 327.505C132.137 327.39 131.515 327.471 130.951 327.736C130.387 328.002 129.906 328.441 129.566 329" fill="#FFBBAB"/>
<path d="M158.363 244.993L161.506 246.879C163.021 247.787 164.764 249.459 166.392 248.801C169.112 247.644 171.897 244.69 174.292 242.84C176.686 240.989 179.471 238.747 182.044 236.647C182.722 236.179 183.313 235.575 183.787 234.868C184.553 233.48 184.569 231.434 185.905 230.722L186.654 234.281L190.775 231.896C191.259 231.554 191.827 231.38 192.403 231.398C193.511 231.612 194.032 233.089 193.885 234.316C193.56 238.427 189.7 239.744 186.638 240.776C185.81 240.991 185.007 241.308 184.243 241.719C183.656 242.094 183.109 242.542 182.615 243.053C179.815 245.51 177.289 248.317 175.09 251.417C174.097 252.961 173.009 254.43 171.832 255.812C170.915 257.3 169.679 258.521 168.233 259.371C167.131 259.756 165.954 259.805 164.829 259.513C160.741 258.677 156.962 255.634 153.753 252.876C153.395 252.573 153.004 252.093 153.232 251.666C153.366 251.481 153.547 251.345 153.753 251.274C155.011 250.785 156.132 249.952 157.011 248.854C157.495 248.369 157.869 247.768 158.103 247.098C158.338 246.428 158.427 245.707 158.363 244.993Z" fill="#FFBBAB"/>
<path d="M150.87 222.305C150.569 222.899 150.146 223.408 149.634 223.794C149.123 224.18 148.537 224.431 147.922 224.529C147.605 224.489 147.284 224.564 147.01 224.743C146.905 224.89 146.832 225.06 146.795 225.242C146.759 225.423 146.76 225.612 146.799 225.793L147.124 230.384C147.19 230.746 147.144 231.121 146.994 231.451C146.739 231.787 146.379 232.009 145.984 232.074C144.453 232.537 142.58 232.893 141.505 231.629C140.997 230.896 140.692 230.019 140.626 229.103C139.574 223.9 139.288 218.548 139.779 213.248C139.887 211.642 140.311 210.082 141.022 208.672C141.733 207.262 142.715 206.037 143.899 205.08C146.815 203.158 154.274 202.571 153.965 207.909C153.647 210.043 153.435 212.193 153.33 214.351C153.346 217.228 152.48 220.028 150.87 222.305Z" fill="#FFBBAB"/>
<path d="M154.112 203.603C154.421 204.534 154.421 205.555 154.112 206.486C153.865 206.907 153.543 207.269 153.165 207.55C152.788 207.832 152.361 208.026 151.913 208.123C149.714 208.781 147.352 208.603 145.202 209.351C144.849 209.449 144.528 209.652 144.274 209.938C144.082 210.275 143.975 210.662 143.964 211.059C143.476 215.705 143.607 220.405 144.355 225.01C140.394 226.293 136.17 226.237 132.238 224.85C131.606 224.719 131.028 224.376 130.584 223.869C130.14 223.362 129.853 222.715 129.762 222.02C128.847 218.754 128.566 215.315 128.937 211.924C129.307 208.532 130.32 205.262 131.912 202.322C132.632 200.779 133.714 199.472 135.048 198.534C136.381 197.597 137.918 197.062 139.502 196.984C144.811 196.147 152.727 196.735 154.112 203.603Z" fill="#FC682D"/>
<path d="M149.307 279.069C148.981 290.44 152.776 301.134 155.61 312.078C156.864 316.829 158.249 321.722 157.776 326.634C157.784 326.764 157.784 326.895 157.776 327.025C144.046 331.349 128.996 333.502 115.706 327.737C117.121 320.073 117.874 312.28 117.953 304.462C117.833 301.376 118.024 298.285 118.524 295.244C119.599 290.066 122.661 285.671 125.853 281.667C127.141 280.279 128.151 278.612 128.817 276.774C129.204 275.026 129.27 273.212 129.013 271.435C128.435 265.561 128.304 259.645 128.622 253.748C128.953 248.404 130.202 243.177 132.303 238.338C133.196 236.132 134.436 234.115 135.967 232.377C137.516 230.635 139.573 229.54 141.782 229.281C142.884 229.171 143.993 229.382 144.997 229.891C146.001 230.401 146.864 231.191 147.499 232.181C150.838 237.804 156.408 239.067 160.529 244.121C160.774 244.358 160.94 244.677 161.001 245.029C160.996 245.413 160.869 245.784 160.643 246.078C159.226 248.552 157.793 251.025 156.376 253.516C155.933 254.302 155.432 255.046 154.877 255.741C154.372 256.31 153.753 256.773 153.248 257.342C151.933 259.127 151.118 261.29 150.903 263.57C150.004 268.684 149.47 273.865 149.307 279.069Z" fill="#55BCFF"/>
<path d="M145.039 392.793L143.655 392.313C142.549 391.868 141.393 391.587 140.218 391.476C140.018 391.458 139.816 391.495 139.632 391.583C139.397 391.742 139.214 391.979 139.111 392.259C138.919 392.689 138.641 393.067 138.296 393.362C137.926 393.535 137.527 393.624 137.124 393.624C136.721 393.624 136.322 393.535 135.951 393.362C135.137 393.161 134.349 392.85 133.606 392.437C132.873 391.992 132.254 391.352 131.505 390.96C131.297 390.835 131.068 390.76 130.831 390.742C130.595 390.723 130.358 390.761 130.136 390.853C129.919 390.995 129.735 391.19 129.599 391.423C129.292 391.78 129.059 392.205 128.915 392.669C128.832 393.127 128.832 393.598 128.915 394.056C128.933 394.463 129.039 394.86 129.224 395.213C129.455 395.46 129.731 395.651 130.034 395.774C130.337 395.897 130.661 395.948 130.983 395.925L137.759 396.388C139.876 396.53 141.994 396.672 144.127 396.637C145.295 396.661 146.461 396.523 147.597 396.227C147.759 396.227 147.939 396.121 147.987 395.943C148.028 395.828 148.028 395.701 147.987 395.587C147.592 394.848 147.066 394.203 146.439 393.69C145.813 393.177 145.099 392.805 144.339 392.597" fill="#55BCFF"/>
<path d="M106.894 375.746C107.073 376.476 106.894 377.294 107.057 378.024C107.232 378.599 107.509 379.131 107.872 379.59L109.5 381.796C109.681 382.076 109.907 382.318 110.168 382.508C110.523 382.661 110.903 382.731 111.284 382.716C111.665 382.701 112.039 382.6 112.383 382.419C112.479 382.366 112.585 382.338 112.693 382.338C112.8 382.338 112.906 382.366 113.002 382.419C113.109 382.528 113.183 382.671 113.214 382.828L114.158 386.387C114.549 387.881 114.762 389.424 114.794 390.978C114.664 391.167 114.489 391.315 114.289 391.405C112.79 392.241 110.217 388.522 108.93 387.33C107.719 386.029 106.79 384.448 106.21 382.704C105.836 381.796 105.494 380.924 105.168 379.963C104.791 379.122 104.538 378.221 104.419 377.294C104.414 377.037 104.476 376.784 104.597 376.564C104.718 376.344 104.893 376.165 105.103 376.049C105.542 375.853 106.699 374.945 106.894 375.746Z" fill="#55BCFF"/>
<path d="M181.67 199.155H187.224L184.455 193.407L181.67 199.155Z" fill="url(#paint9_linear)"/>
<path d="M157.776 326.634C156.788 327.006 155.737 327.14 154.697 327.027C153.657 326.913 152.651 326.554 151.75 325.975C148.606 323.822 147.352 319.534 146.864 315.53C145.61 306.757 146.359 297.255 142.124 289.675C140.837 287.379 139.046 285.048 139.306 282.343C139.567 279.639 141.994 277.628 143.378 275.226C144.703 272.481 145.412 269.431 145.447 266.328C145.919 260.545 146.391 254.744 146.88 248.961C146.88 250.42 152.743 253.534 154.877 255.776C154.372 256.346 153.753 256.808 153.248 257.378C151.933 259.163 151.118 261.326 150.903 263.606C150.032 268.716 149.526 273.892 149.388 279.087C149.062 290.458 152.857 301.152 155.691 312.096C156.864 316.829 158.249 321.722 157.776 326.634Z" fill="url(#paint10_linear)"/>
<path d="M350.245 358.93H318.044H315.634L310.031 294.604L323.598 295.102L350.245 296.063C350.245 296.063 350.733 325.014 350.245 358.93Z" fill="#473F47"/>
<path d="M324.022 290.315L323.598 295.173L317.979 358.984H315.569H284.085C283.564 310.939 287.717 283.251 287.717 283.251L324.022 290.315Z" fill="#473F47"/>
<path d="M264.117 232.75C264.328 236.985 265.583 240.705 269.003 241.915C269.282 242.035 269.571 242.124 269.866 242.181C276.072 243.534 284.215 238.373 289.9 233.871C292.257 231.997 294.519 229.983 296.675 227.839V182.446L266.478 216.255C264.885 221.579 264.088 227.149 264.117 232.75Z" fill="white"/>
<path d="M289.639 233.676C289.639 235.793 289.395 237.946 289.395 240.082C289.395 251.808 291.887 263.908 288.678 275.404C287.962 277.966 286.952 280.742 287.782 283.251C288.715 285.361 290.31 287.034 292.278 287.966C301.741 293.625 312.67 295.351 323.354 296.988C331.384 298.216 342.769 300.832 350.196 296.098C353.355 294.088 354.43 290.333 355.44 286.596C358.698 274.71 359.594 261.915 360.441 249.602C360.555 247.982 360.652 246.345 360.75 244.726C361.369 233.492 361.575 222.258 361.369 211.023C361.222 202.874 360.636 194.065 355.766 187.891C349.251 179.688 336.742 174.26 327.23 172.356C324.145 171.67 320.985 171.479 317.849 171.787C313.4 172.559 309.104 174.154 305.145 176.502C300.421 179.047 296.219 181.2 293.89 186.307C291.361 192.233 289.601 198.516 288.662 204.973C287.807 211.016 287.709 217.158 288.369 223.23C288.646 226.202 289.362 229.156 289.623 232.128C289.607 232.644 289.639 233.177 289.639 233.676Z" fill="white"/>
<path opacity="0.1" d="M333.436 300.138C336.547 301.134 343.73 298.02 346.124 297.558C347.541 297.291 348.844 296.508 350.261 296.134C357.362 294.194 358.209 272.379 358.91 266.506C360.75 250.99 363.584 234.921 363.796 219.351C364.112 213.345 363.472 207.325 361.906 201.557C360.115 195.898 356.418 190.667 351.254 188.62C342.166 185.062 339.479 216.415 338.224 222.928L331.4 258.41C330.442 262.764 329.821 267.199 329.543 271.667C329.299 277.877 331.172 282.343 332.573 287.824C333.403 290.92 331.123 296.828 332.247 299.123C332.506 299.619 332.933 299.984 333.436 300.138Z" fill="#020202"/>
<path d="M311.578 162.694C312.722 164.052 314.28 164.906 315.96 165.096C317.363 165.239 318.775 165.239 320.178 165.096H320.96C321.163 165.053 321.373 165.098 321.546 165.221C321.627 165.31 321.69 165.415 321.732 165.532C321.774 165.648 321.794 165.772 321.791 165.897C322.097 168.964 322.152 172.055 321.953 175.132C321.953 175.684 321.872 176.236 321.823 176.787C321.712 177.382 321.757 177.999 321.953 178.567C322.359 179.199 322.971 179.639 323.664 179.794C324.893 180.242 326.179 180.482 327.475 180.506C330.249 180.22 332.917 179.193 335.244 177.517C335.059 172.253 335.315 166.981 336.009 161.769C336.905 155.042 338.518 148.316 337.85 141.554C337.85 139.954 337.532 138.373 336.917 136.921C336.303 135.468 335.407 134.179 334.292 133.141C333.177 132.104 331.869 131.344 330.459 130.913C329.048 130.482 327.569 130.391 326.123 130.646C321.684 130.553 317.313 131.857 313.533 134.401C312.968 134.889 312.508 135.507 312.187 136.211C311.866 136.916 311.691 137.689 311.676 138.476C311.187 141.127 310.796 143.814 310.536 146.483C310.226 149.562 310.064 152.64 310.015 155.719C309.766 158.172 310.32 160.643 311.578 162.694Z" fill="#FDBAAC"/>
<path d="M316.481 135.985C319.624 136.554 322.996 135.985 326.058 137.284C330.227 139.063 332.003 145.06 330.602 149.74C331.807 150.22 332.035 147.853 332.964 146.893C333.892 145.932 335.993 147.213 336.221 148.868C336.138 150.525 335.679 152.133 334.886 153.548C333.753 156.457 333.558 159.701 334.332 162.747C334.527 163.459 335 164.313 335.667 164.118C336.335 163.922 336.791 162.712 337.182 162.178C337.777 161.336 338.437 160.55 339.153 159.829C340.635 158.423 342.231 157.196 343.73 155.825C346.401 153.388 348.876 150.078 348.714 146.288C348.629 144.742 348.155 143.252 347.345 141.981C346.664 140.883 345.782 139.95 344.756 139.241C344.332 138.938 343.844 138.636 343.762 138.084C343.739 137.784 343.772 137.481 343.86 137.195C344.172 135.253 343.972 133.255 343.283 131.433C342.594 129.612 341.443 128.043 339.967 126.909C336.94 124.689 333.474 123.286 329.853 122.817C327.524 122.354 325.195 121.998 322.849 121.696C320.911 121.599 319.005 121.11 317.23 120.254C317.684 118.831 318.309 117.478 319.087 116.233C317.421 116.768 315.835 117.566 314.38 118.6C314.46 117.713 314.675 116.847 315.015 116.037C312.379 116.732 309.978 118.232 308.093 120.361C307.112 121.841 306.565 123.61 306.521 125.436C306.477 127.262 306.94 129.059 307.848 130.593C309.656 133.707 312.507 134.953 315.634 135.771L316.481 135.985Z" fill="#F86938"/>
<path d="M320.178 165.167H320.96C321.163 165.124 321.373 165.169 321.546 165.292C321.627 165.381 321.69 165.487 321.732 165.603C321.774 165.719 321.794 165.843 321.791 165.968C322.097 169.035 322.152 172.126 321.953 175.203C321.953 175.203 330.097 172.961 329.755 162.089C326.686 163.48 323.493 164.518 320.227 165.185L320.178 165.167Z" fill="#DEA095"/>
<path d="M258.481 202.482C257.918 209.977 258.552 217.521 260.354 224.779C261.69 229.939 264.207 234.642 267.667 238.445C268.288 239.104 269.05 239.583 269.883 239.838C270.717 240.093 271.596 240.116 272.44 239.904C275.544 239.283 278.392 237.615 280.583 235.135C286.137 228.426 282.359 218.106 282.359 218.106C282.359 218.106 270.86 198.336 268.303 197.535C266.918 197.073 264.117 198.603 261.788 200.08C260.012 201.29 258.481 202.482 258.481 202.482Z" fill="white"/>
<path opacity="0.1" d="M259.475 216.985C260.374 222.716 261.537 228.393 262.96 233.996C263.352 235.879 264.082 237.657 265.11 239.228C267.993 243.089 273.254 242.786 277.163 241.434C278.433 240.989 290.356 235.206 289.867 233.871V233.729L287.945 220.152C288.108 221.255 282.945 225.099 282.261 225.668C279.003 228.391 274.215 232.786 270.371 228.604C269.089 227.014 268.139 225.138 267.586 223.106C265.159 215.995 263.333 208.657 262.13 201.183C261.761 201.028 261.368 200.955 260.973 200.969C260.579 200.983 260.19 201.083 259.832 201.264C259.473 201.445 259.152 201.703 258.886 202.022C258.621 202.341 258.416 202.716 258.286 203.123C257.808 204.792 257.769 206.573 258.172 208.265C258.563 211.184 259.002 214.102 259.475 216.985Z" fill="#020202"/>
<path d="M374.171 235.793C376.858 243.765 379.236 252.217 378.129 260.616C376.809 270.813 370.604 279.336 364.626 287.308C359.936 288.073 353.779 287.966 352.118 283.109C351.699 281.544 351.588 279.901 351.792 278.286L352.46 267.77C353.012 263.091 352.792 258.342 351.808 253.748C350.391 248.605 347.134 244.37 344.56 239.797C340.361 232.365 337.869 223.934 337.296 215.223C336.759 207.038 342.41 180.631 353.453 188.531C358.03 191.806 362.086 205.383 364.496 210.846C368.101 218.948 371.326 227.264 374.171 235.793Z" fill="white"/>
<path d="M349.284 294.479C349.029 294.882 348.892 295.36 348.893 295.849C348.893 296.33 349.447 296.775 349.837 296.561C350.961 300.333 348.616 304.284 348.616 308.27C348.607 308.626 348.657 308.982 348.762 309.32C348.924 309.755 349.202 310.127 349.561 310.387C350.17 310.809 350.867 311.056 351.588 311.105C352.308 311.155 353.028 311.006 353.681 310.672C354.991 310.001 356.16 309.044 357.118 307.861C359.21 305.762 360.808 303.144 361.776 300.227C362.113 298.864 362.336 297.47 362.444 296.063L363.568 285.689C356.434 283.144 352.59 288.304 349.284 294.479Z" fill="#FDBAAC"/>
<path d="M270.843 188.442C271.112 187.771 271.208 187.033 271.12 186.307C271.064 185.951 270.883 185.632 270.615 185.42C270.348 185.207 270.015 185.117 269.687 185.168C269.296 185.275 269.036 185.649 268.694 185.862C268.285 186.094 267.821 186.184 267.364 186.121C266.907 186.057 266.479 185.843 266.136 185.506C265.45 184.835 264.896 184.017 264.508 183.104C263.226 180.646 261.818 178.27 260.289 175.986C259.976 175.408 259.503 174.953 258.937 174.687C258.6 174.609 258.253 174.605 257.914 174.675C257.576 174.745 257.254 174.889 256.967 175.097C255.593 176.021 254.45 177.303 253.64 178.827C252.83 180.352 252.378 182.072 252.325 183.834C252.255 187.376 253.213 190.851 255.061 193.763C256.892 196.666 259.042 199.314 261.462 201.646C262.004 202.326 262.718 202.815 263.514 203.052C268.042 203.87 269.997 191.29 270.843 188.442Z" fill="#FDBAAC"/>
<path opacity="0.41" d="M300.356 93.8297H252.308V140.077H300.356V93.8297Z" fill="white"/>
</g>
<defs>
<linearGradient id="paint0_linear" x1="263.97" y1="179.047" x2="84.384" y2="319.074" gradientUnits="userSpaceOnUse">
<stop offset="0.01"/>
<stop offset="0.13" stop-opacity="0.69"/>
<stop offset="0.25" stop-opacity="0.32"/>
<stop offset="1" stop-opacity="0"/>
</linearGradient>
<linearGradient id="paint1_linear" x1="5048.09" y1="35345.5" x2="19436.4" y2="31138.6" gradientUnits="userSpaceOnUse">
<stop offset="0.01"/>
<stop offset="0.13" stop-opacity="0.69"/>
<stop offset="0.25" stop-opacity="0.32"/>
<stop offset="1" stop-opacity="0"/>
</linearGradient>
<linearGradient id="paint2_linear" x1="253.09" y1="232.982" x2="307.231" y2="697.221" gradientUnits="userSpaceOnUse">
<stop offset="0.01"/>
<stop offset="0.08" stop-opacity="0.69"/>
<stop offset="0.21" stop-opacity="0.32"/>
<stop offset="1" stop-opacity="0"/>
</linearGradient>
<linearGradient id="paint3_linear" x1="434.194" y1="115.895" x2="215.418" y2="290.231" gradientUnits="userSpaceOnUse">
<stop stop-color="white"/>
<stop offset="1" stop-color="#CBCBCB"/>
</linearGradient>
<linearGradient id="paint4_linear" x1="-56424" y1="156.767" x2="-56424" y2="172.291" gradientUnits="userSpaceOnUse">
<stop stop-color="white"/>
<stop offset="1" stop-color="#CBCBCB"/>
</linearGradient>
<linearGradient id="paint5_linear" x1="-8576.6" y1="1304.77" x2="-8578.44" y2="1332.05" gradientUnits="userSpaceOnUse">
<stop stop-color="white"/>
<stop offset="1" stop-color="#CBCBCB"/>
</linearGradient>
<linearGradient id="paint6_linear" x1="-22907.2" y1="25724.1" x2="138654" y2="30861.8" gradientUnits="userSpaceOnUse">
<stop offset="0.01"/>
<stop offset="0.13" stop-opacity="0.69"/>
<stop offset="0.25" stop-opacity="0.32"/>
<stop offset="1" stop-opacity="0"/>
</linearGradient>
<linearGradient id="paint7_linear" x1="11056.2" y1="7989.21" x2="16874.1" y2="38253.2" gradientUnits="userSpaceOnUse">
<stop offset="0.01"/>
<stop offset="0.08" stop-opacity="0.69"/>
<stop offset="0.21" stop-opacity="0.32"/>
<stop offset="1" stop-opacity="0"/>
</linearGradient>
<linearGradient id="paint8_linear" x1="1615.79" y1="34493.6" x2="3016.8" y2="34489.8" gradientUnits="userSpaceOnUse">
<stop offset="0.01"/>
<stop offset="0.13" stop-opacity="0.69"/>
<stop offset="0.25" stop-opacity="0.32"/>
<stop offset="1" stop-opacity="0"/>
</linearGradient>
<linearGradient id="paint9_linear" x1="780.945" y1="813.744" x2="951.144" y2="900.824" gradientUnits="userSpaceOnUse">
<stop offset="0.01"/>
<stop offset="0.13" stop-opacity="0.69"/>
<stop offset="0.25" stop-opacity="0.32"/>
<stop offset="1" stop-opacity="0"/>
</linearGradient>
<linearGradient id="paint10_linear" x1="1252.47" y1="14217.2" x2="3576.01" y2="14339.4" gradientUnits="userSpaceOnUse">
<stop offset="0.01"/>
<stop offset="0.13" stop-opacity="0.69"/>
<stop offset="0.25" stop-opacity="0.32"/>
<stop offset="1" stop-opacity="0"/>
</linearGradient>
<clipPath id="clip0">
<rect width="481" height="405" fill="white"/>
</clipPath>
</defs>
</svg>
