<svg width="647" height="495" viewBox="0 0 647 495" fill="none" xmlns="http://www.w3.org/2000/svg">
<path opacity="0.45" d="M329.193 434.379C456.072 434.379 558.927 423.69 558.927 410.504C558.927 397.317 456.072 386.628 329.193 386.628C202.315 386.628 99.46 397.317 99.46 410.504C99.46 423.69 202.315 434.379 329.193 434.379Z" fill="#E6E6E6"/>
<path d="M496.411 379.417H403.162V404.465H496.411V379.417Z" fill="#E6E6E6"/>
<path d="M191.722 206.679C191.722 206.679 130.257 251.229 163.529 327.937H172.7C172.7 327.937 167.848 272.283 191.722 245.932C215.597 219.582 191.722 206.679 191.722 206.679Z" fill="#E85F5F"/>
<path opacity="0.2" d="M191.722 206.679C191.722 206.679 130.257 251.229 163.529 327.937H172.7C172.7 327.937 167.848 272.283 191.722 245.932C215.597 219.582 191.722 206.679 191.722 206.679Z" fill="white"/>
<path opacity="0.43" d="M476.014 354.915H382.765V379.962H476.014V354.915Z" fill="#E6E6E6"/>
<path d="M429.398 66.726H244.792V404.464H429.398V66.726Z" fill="#C9C9C9"/>
<path d="M412.867 105.22H260.062V342.903H412.867V105.22Z" fill="white"/>
<path d="M329.549 174.372C329.549 174.372 298.72 180.56 307.244 206.679C315.768 232.799 306.662 240.075 308.862 255.536C311.061 270.996 319.537 289.509 319.537 289.509L338.721 240.636L329.549 174.372Z" fill="#F4A28C"/>
<path d="M320.783 158.532C319.359 166.313 317.242 173.946 314.458 181.335C310.334 191.532 317.353 198.231 330.164 191.235C342.975 184.239 337.702 161.122 337.702 161.122L320.783 158.532Z" fill="#24285B"/>
<path d="M351.159 172.838C351.159 172.838 375.939 174.488 375.939 203.148C375.939 231.809 362.999 274.758 362.999 274.758H320.605L317.531 255.849C316.394 249.228 313.739 242.976 309.784 237.6C305.772 232.056 301.47 223.295 303.2 212.685C306.225 194.139 329.549 174.455 329.549 174.455L351.159 172.838Z" fill="#E85F5F"/>
<path d="M326.347 155.826L329.582 174.372C329.582 174.372 324.422 186.367 330.682 187.423C336.941 188.479 343.347 172.837 343.347 172.837L333.69 152.839L326.347 155.826Z" fill="#F4A28C"/>
<path d="M318 146.932C318 146.932 316.739 162.178 327.705 161.122C338.672 160.066 333.593 145.744 333.593 145.744C333.593 145.744 333.9 131.373 326.072 134.079C318.243 136.785 318 146.932 318 146.932Z" fill="#F4A28C"/>
<path d="M317.693 150.298C317.693 150.298 329.841 147.609 330.18 139.821C330.18 139.821 332.978 162.327 333.076 175.593C333.173 188.859 339.546 194.618 351.725 188.183C363.905 181.748 346.873 160.842 341.81 148.137C336.747 135.432 337.475 129.987 328.87 126.687C320.265 123.387 308.781 135.085 317.693 150.298Z" fill="#24285B"/>
<path opacity="0.08" d="M352.437 194.948C352.437 194.948 342.813 203.858 347.196 221.826C351.58 239.795 356.546 252.401 347.196 253.737C337.847 255.074 317.952 204.98 317.952 204.98C316.59 206.737 315.678 208.812 315.3 211.019C314.921 213.226 315.088 215.494 315.785 217.619C317.984 225.473 321.316 257.582 333.836 265.271L361.77 267.036L364.795 237.831L352.437 194.948Z" fill="black"/>
<path d="M318.906 264.297L365.151 267.3L379.935 342.556L298.17 342.903L318.906 264.297Z" fill="#24285B"/>
<path d="M353.602 189.997C356.837 180.724 369.437 179.998 374.095 188.644C377.33 194.749 380.323 204.253 379.935 218.46C379.11 249.348 378.172 276.127 353.181 266.524C328.191 256.921 319.586 215.655 319.586 215.655C319.586 215.655 308.975 196.828 318.162 195.277C327.35 193.726 328.45 213.114 328.45 213.114C328.45 213.114 343.46 247.945 356.06 247.665C365.992 247.5 346.614 209.863 353.602 189.997Z" fill="#F4A28C"/>
<path d="M412.867 276.87H259.172V342.903H412.867V276.87Z" fill="#24285B"/>
<path opacity="0.08" d="M265.885 211.712C265.885 211.712 287.915 208.626 294.385 242.748C300.855 276.87 302.893 337.029 294.385 342.557C285.877 348.084 266.079 341.435 268.731 361.598C271.384 381.761 271.821 404.498 271.821 404.498H244.792L265.885 211.712Z" fill="black"/>
<path opacity="0.56" d="M337.653 391.776C347.632 391.776 355.721 383.524 355.721 373.346C355.721 363.167 347.632 354.915 337.653 354.915C327.675 354.915 319.586 363.167 319.586 373.346C319.586 383.524 327.675 391.776 337.653 391.776Z" fill="white"/>
<path opacity="0.12" d="M373.238 79.926H321.478V87.6315H373.238V79.926Z" fill="black"/>
<path d="M302.731 93.2085C307.386 93.2085 311.159 89.3597 311.159 84.612C311.159 79.8643 307.386 76.0155 302.731 76.0155C298.077 76.0155 294.304 79.8643 294.304 84.612C294.304 89.3597 298.077 93.2085 302.731 93.2085Z" fill="white"/>
<path d="M208.496 182.622L213.72 198.627L201.314 206.679L196.833 178.926L208.496 182.622Z" fill="#F4A28C"/>
<path d="M192.58 163.466C193.214 161.926 194.219 160.575 195.502 159.539C196.785 158.502 198.305 157.814 199.919 157.537C201.533 157.261 203.19 157.405 204.734 157.957C206.279 158.509 207.662 159.45 208.755 160.694C214.044 166.452 220.417 175.544 213.203 180.593C202.171 188.216 192.046 173.993 192.046 173.993C191.199 170.507 191.385 166.843 192.58 163.466Z" fill="#F4A28C"/>
<path d="M200.651 173.25C200.651 173.25 197.82 170.841 196.542 174.256C195.265 177.672 200.247 179.338 201.735 177.556C203.223 175.774 200.651 173.25 200.651 173.25Z" fill="#F4A28C"/>
<path d="M186.821 214.5C188.692 210.258 191.438 206.477 194.871 203.416C198.304 200.355 202.345 198.086 206.716 196.763C223.587 191.598 254.659 197.258 264.122 213.263C277.062 235.306 258.104 305.316 258.104 305.316L201.492 309.804C201.492 309.804 170.226 252.532 186.821 214.5Z" fill="#E85F5F"/>
<path d="M258.104 305.432L250.648 404.861H238.872L228.342 327.608L202.268 309.92L258.104 305.432Z" fill="#24285B"/>
<path d="M290.552 321.222C295.715 321.222 299.901 316.952 299.901 311.685C299.901 306.418 295.715 302.148 290.552 302.148C285.388 302.148 281.202 306.418 281.202 311.685C281.202 316.952 285.388 321.222 290.552 321.222Z" fill="white"/>
<path d="M202.268 309.919L186.012 404.86H198.645L225.949 325.99L202.268 309.919Z" fill="#24285B"/>
<path opacity="0.08" d="M211.634 195.277C211.634 195.277 185.107 282.414 261.679 288.189L258.104 305.431L201.492 309.919C201.492 309.919 181.516 277.926 182.373 232.98C182.373 232.98 182.858 210.754 198.192 200.937C202.229 198.1 206.81 196.17 211.634 195.277Z" fill="black"/>
<path d="M188.973 404.662L181.354 410.371C181.022 410.556 180.763 410.853 180.623 411.211C180.483 411.569 180.471 411.967 180.588 412.333C180.705 412.7 180.945 413.013 181.265 413.219C181.585 413.424 181.966 413.508 182.341 413.457H195.103C195.532 413.457 195.943 413.283 196.247 412.974C196.55 412.664 196.72 412.245 196.72 411.807V404.712L188.973 404.662Z" fill="#E85F5F"/>
<path d="M249.176 404.662L256.341 410.371C256.683 410.555 256.95 410.856 257.093 411.222C257.235 411.588 257.245 411.994 257.12 412.367C256.995 412.739 256.744 413.054 256.411 413.254C256.078 413.454 255.686 413.526 255.306 413.457H246.216C244.929 413.457 243.695 412.935 242.785 412.007C241.875 411.079 241.363 409.82 241.363 408.507V404.662H249.176Z" fill="#E85F5F"/>
<path d="M164.985 327.938C164.985 327.938 166.214 346.599 174.884 341.748C183.554 336.897 172.701 327.938 172.701 327.938H164.985Z" fill="#F4A28C"/>
<path d="M193 178.332C193 178.332 196.51 184.932 202.333 182.836C208.156 180.741 203.95 166.782 203.95 166.782C203.95 166.782 210.987 156.42 209.968 148.219C209.418 143.715 203.498 143.038 201.395 147.081C200.73 148.33 199.756 149.381 198.57 150.127C197.384 150.874 196.027 151.292 194.634 151.338C184.735 152.46 175.644 168.415 193 178.332Z" fill="#24285B"/>
<path d="M163.723 179.652L149.166 166.93C153.84 155.843 154.136 143.342 149.991 132.037C145.846 120.733 137.581 111.498 126.92 106.261C116.26 101.025 104.029 100.191 92.7808 103.933C81.5322 107.676 72.1355 115.706 66.5524 126.348C60.9692 136.989 59.6311 149.419 62.8174 161.042C66.0037 172.666 73.4681 182.585 83.6524 188.729C93.8367 194.872 105.954 196.766 117.474 194.014C128.994 191.262 139.027 184.077 145.478 173.959L163.723 179.652Z" fill="#24285B"/>
<path d="M463.219 153.037L477.858 140.332C473.187 129.253 472.893 116.761 477.035 105.464C481.178 94.1682 489.437 84.9407 500.09 79.7082C510.742 74.4756 522.965 73.6425 534.205 77.3827C545.445 81.1229 554.835 89.1473 560.414 99.7809C565.993 110.414 567.331 122.835 564.147 134.451C560.963 146.066 553.504 155.978 543.327 162.117C533.151 168.257 521.043 170.149 509.531 167.4C498.019 164.65 487.993 157.471 481.546 147.361L463.219 153.037Z" fill="#FFD200"/>
<path d="M99.7242 134.301V149.565H97.7313V142.645H89.9568V149.565H87.9639V134.301H89.9568V141.002H97.7313V134.301H99.7242ZM105.12 134.301V149.565H103.127V134.301H105.12Z" fill="white"/>
<path d="M513.804 108.264V123.528H511.811V116.608H504.037V123.528H502.044V108.264H504.037V114.965H511.811V108.264H513.804ZM519.2 108.264V123.528H517.207V108.264H519.2Z" fill="white"/>
<path d="M233.146 221.1C231.814 218.193 231.426 214.928 232.04 211.78C232.653 208.633 234.236 205.767 236.558 203.602C238.88 201.436 241.818 200.083 244.946 199.74C248.074 199.398 251.228 200.083 253.948 201.696C263.183 207.026 272.5 216.447 276.156 233.046C284.405 270.749 286.686 316.454 286.686 316.454L277.191 317.51C277.191 317.51 266.742 270.534 248.901 244.91C244.534 238.953 236.834 229.35 233.146 221.1Z" fill="#E85F5F"/>
<path opacity="0.2" d="M233.146 221.1C231.814 218.193 231.426 214.928 232.04 211.78C232.653 208.633 234.236 205.767 236.558 203.602C238.88 201.436 241.818 200.083 244.946 199.74C248.074 199.398 251.228 200.083 253.948 201.696C263.183 207.026 272.5 216.447 276.156 233.046C284.405 270.749 286.686 316.454 286.686 316.454L277.191 317.51C277.191 317.51 266.742 270.534 248.901 244.91C244.534 238.953 236.834 229.35 233.146 221.1Z" fill="white"/>
<path d="M278.986 317.378C278.986 317.378 274.134 331.172 280.264 331.914C288.352 332.904 286.605 316.536 286.605 316.536L278.986 317.378Z" fill="#F4A28C"/>
<path d="M388.993 145.811C396.193 145.811 402.03 139.856 402.03 132.512C402.03 125.167 396.193 119.213 388.993 119.213C381.792 119.213 375.956 125.167 375.956 132.512C375.956 139.856 381.792 145.811 388.993 145.811Z" fill="#E85F5F"/>
<path opacity="0.29" d="M384.302 321.222C389.465 321.222 393.651 316.952 393.651 311.685C393.651 306.418 389.465 302.148 384.302 302.148C379.138 302.148 374.953 306.418 374.953 311.685C374.953 316.952 379.138 321.222 384.302 321.222Z" fill="white"/>
<path opacity="0.32" d="M372.106 145.811C379.306 145.811 385.143 139.856 385.143 132.512C385.143 125.167 379.306 119.213 372.106 119.213C364.906 119.213 359.069 125.167 359.069 132.512C359.069 139.856 364.906 145.811 372.106 145.811Z" fill="#E85F5F"/>
<path d="M338.235 332.442C350.796 332.442 360.978 322.055 360.978 309.243C360.978 296.43 350.796 286.044 338.235 286.044C325.675 286.044 315.493 296.43 315.493 309.243C315.493 322.055 325.675 332.442 338.235 332.442Z" fill="#E85F5F"/>
<path d="M336.957 310.909C335.343 309.365 334.279 307.315 333.933 305.085C333.915 304.953 333.928 304.819 333.97 304.693C334.012 304.567 334.082 304.452 334.175 304.359L336.1 302.395C336.235 302.253 336.32 302.068 336.34 301.871C336.361 301.674 336.316 301.475 336.213 301.306L333.205 296.455C333.088 296.273 332.911 296.141 332.705 296.083C332.499 296.025 332.28 296.046 332.089 296.142L327.236 298.501C327.079 298.579 326.949 298.705 326.864 298.862C326.78 299.019 326.746 299.199 326.767 299.376C327.573 304.934 330.11 310.08 334.005 314.053C337.9 318.026 342.945 320.615 348.393 321.436C348.567 321.455 348.742 321.42 348.895 321.334C349.048 321.248 349.172 321.117 349.25 320.958L351.564 316.008C351.657 315.813 351.678 315.589 351.621 315.379C351.565 315.17 351.435 314.988 351.256 314.869L346.404 311.751C346.243 311.642 346.05 311.593 345.857 311.614C345.665 311.635 345.487 311.725 345.352 311.866L343.427 313.83C343.333 313.926 343.219 313.998 343.092 314.041C342.966 314.084 342.831 314.097 342.7 314.077C340.513 313.713 338.506 312.622 336.99 310.975L336.957 310.909Z" fill="white"/>
</svg>
